<?xml version="1.0" encoding="UTF-8"?>
<svg id="Layer_1" xmlns="http://www.w3.org/2000/svg" version="1.1" viewBox="0 0 448 512">
  <!-- Generator: Adobe Illustrator 29.0.0, SVG Export Plug-In . SVG Version: 2.1.0 Build 186)  -->
  <path d="M196.8,451c-15.1,0-30.1-5.7-41.6-17.2L19,297.6c-22.9-22.9-22.9-60.2,0-83.2L155.1,78.2c11.1-11.1,25.9-17.2,41.6-17.2s30.5,6.1,41.6,17.2c22.9,22.9,22.9,60.2,0,83.2l-35.8,35.9h185c32.4,0,58.8,26.4,58.8,58.8s-26.4,58.8-58.8,58.8h-184.9l35.9,35.9c22.9,22.9,22.9,60.3,0,83.2-11.5,11.5-26.5,17.2-41.6,17.2Z"/>
</svg>