<?xml version="1.0" encoding="UTF-8"?>
<svg id="Layer_1" xmlns="http://www.w3.org/2000/svg" version="1.1" viewBox="0 0 512 512">
  <!-- Generator: Adobe Illustrator 29.0.0, SVG Export Plug-In . SVG Version: 2.1.0 Build 186)  -->
  <defs>
    <style>
      .st0 {
        fill: #fff;
      }
    </style>
  </defs>
  <path class="st0" d="M256,0C114.6,0,0,114.6,0,256s114.6,256,256,256,256-114.6,256-256S397.4,0,256,0ZM303,385c0,21.5-17.5,39-39,39s-39-17.5-39-39v-103h-8.5c-21.3,0-39-17.1-39.5-38.1-.2-10.6,3.7-20.6,11.1-28.2,7.4-7.6,17.3-11.7,27.9-11.7h48c21.5,0,39,17.5,39,39v142ZM256,182c-25.9,0-47-21.1-47-47s21.1-47,47-47,47,21.1,47,47-21.1,47-47,47Z"/>
</svg>