<?xml version="1.0" encoding="UTF-8"?>
<svg id="Layer_2" xmlns="http://www.w3.org/2000/svg" version="1.1" viewBox="0 0 448 512">
  <!-- Generator: Adobe Illustrator 29.0.0, SVG Export Plug-In . SVG Version: 2.1.0 Build 186)  -->
  <path d="M416.3,34.6h-113.1c0-17.5-14.2-31.7-31.7-31.7h-95c-17.5,0-31.7,14.2-31.7,31.7H31.7C14.2,34.6,0,48.8,0,66.3H0C0,83.8,14.2,98,31.7,98h384.6c17.5,0,31.7-14.2,31.7-31.7h0c0-17.5-14.2-31.7-31.7-31.7Z"/>
  <path d="M300.6,512h-153.1c-53.5,0-97.7-41.9-100.5-95.4l-15-288.6h384l-15,288.7c-2.8,53.4-46.9,95.3-100.3,95.3Z"/>
</svg>